<svg xmlns="http://www.w3.org/2000/svg" xmlns:xlink="http://www.w3.org/1999/xlink" width="1000" zoomAndPan="magnify" viewBox="0 0 750 225" height="300" preserveAspectRatio="xMidYMid meet" version="1.0"><defs><g/><clipPath id="8402412c30"><path d="M 0 34.296875 L 180.589844 34.296875 L 180.589844 190.878906 L 0 190.878906 Z M 0 34.296875 " clip-rule="nonzero"/></clipPath><clipPath id="09d97b81b4"><path d="M 135.441406 34.296875 L 45.148438 34.296875 L 0 112.5 L 45.148438 190.703125 L 135.441406 190.703125 L 180.589844 112.5 Z M 135.441406 34.296875 " clip-rule="nonzero"/></clipPath><clipPath id="b038d3b8d1"><path d="M 0 0.296875 L 180.589844 0.296875 L 180.589844 156.800781 L 0 156.800781 Z M 0 0.296875 " clip-rule="nonzero"/></clipPath><clipPath id="baee618d9b"><path d="M 135.441406 0.296875 L 45.148438 0.296875 L 0 78.5 L 45.148438 156.703125 L 135.441406 156.703125 L 180.589844 78.5 Z M 135.441406 0.296875 " clip-rule="nonzero"/></clipPath><clipPath id="edcac88c99"><rect x="0" width="181" y="0" height="157"/></clipPath><clipPath id="54e3b0b946"><path d="M 6.996094 40.355469 L 173.59375 40.355469 L 173.59375 184.808594 L 6.996094 184.808594 Z M 6.996094 40.355469 " clip-rule="nonzero"/></clipPath><clipPath id="1c3953e1c9"><path d="M 131.945312 40.355469 L 48.644531 40.355469 L 6.996094 112.5 L 48.644531 184.644531 L 131.945312 184.644531 L 173.59375 112.5 Z M 131.945312 40.355469 " clip-rule="nonzero"/></clipPath><clipPath id="5337671137"><path d="M 0.996094 0.355469 L 167.59375 0.355469 L 167.59375 144.800781 L 0.996094 144.800781 Z M 0.996094 0.355469 " clip-rule="nonzero"/></clipPath><clipPath id="21c2a65072"><path d="M 125.945312 0.355469 L 42.644531 0.355469 L 0.996094 72.5 L 42.644531 144.644531 L 125.945312 144.644531 L 167.59375 72.5 Z M 125.945312 0.355469 " clip-rule="nonzero"/></clipPath><clipPath id="053836a9ff"><rect x="0" width="168" y="0" height="145"/></clipPath><clipPath id="978b1d0c55"><path d="M 15.242188 26.492188 L 45.269531 26.492188 L 45.269531 52.527344 L 15.242188 52.527344 Z M 15.242188 26.492188 " clip-rule="nonzero"/></clipPath><clipPath id="cb77e82336"><path d="M 37.761719 26.492188 L 22.75 26.492188 L 15.242188 39.496094 L 22.75 52.496094 L 37.761719 52.496094 L 45.269531 39.496094 Z M 37.761719 26.492188 " clip-rule="nonzero"/></clipPath><clipPath id="adcfdca133"><path d="M 0.242188 0.492188 L 30.269531 0.492188 L 30.269531 26.527344 L 0.242188 26.527344 Z M 0.242188 0.492188 " clip-rule="nonzero"/></clipPath><clipPath id="bb4b61b890"><path d="M 22.761719 0.492188 L 7.75 0.492188 L 0.242188 13.496094 L 7.75 26.496094 L 22.761719 26.496094 L 30.269531 13.496094 Z M 22.761719 0.492188 " clip-rule="nonzero"/></clipPath><clipPath id="40295ee774"><rect x="0" width="31" y="0" height="27"/></clipPath><clipPath id="4f50649141"><path d="M 0.230469 52.496094 L 30.253906 52.496094 L 30.253906 78.53125 L 0.230469 78.53125 Z M 0.230469 52.496094 " clip-rule="nonzero"/></clipPath><clipPath id="8532b5d9c0"><path d="M 22.75 52.496094 L 7.734375 52.496094 L 0.230469 65.5 L 7.734375 78.503906 L 22.75 78.503906 L 30.253906 65.5 Z M 22.75 52.496094 " clip-rule="nonzero"/></clipPath><clipPath id="68af5f1467"><path d="M 0.230469 0.496094 L 30.253906 0.496094 L 30.253906 26.519531 L 0.230469 26.519531 Z M 0.230469 0.496094 " clip-rule="nonzero"/></clipPath><clipPath id="162eab5883"><path d="M 22.75 0.496094 L 7.734375 0.496094 L 0.230469 13.5 L 7.734375 26.503906 L 22.75 26.503906 L 30.253906 13.5 Z M 22.75 0.496094 " clip-rule="nonzero"/></clipPath><clipPath id="e0c9f137bd"><rect x="0" width="31" y="0" height="27"/></clipPath><clipPath id="b709bdef63"><path d="M 30.253906 0.488281 L 60.28125 0.488281 L 60.28125 26.519531 L 30.253906 26.519531 Z M 30.253906 0.488281 " clip-rule="nonzero"/></clipPath><clipPath id="c9d258dff1"><path d="M 52.773438 0.488281 L 37.761719 0.488281 L 30.253906 13.488281 L 37.761719 26.492188 L 52.773438 26.492188 L 60.28125 13.488281 Z M 52.773438 0.488281 " clip-rule="nonzero"/></clipPath><clipPath id="5aaf1861c0"><path d="M 0.253906 0.488281 L 30.28125 0.488281 L 30.28125 26.519531 L 0.253906 26.519531 Z M 0.253906 0.488281 " clip-rule="nonzero"/></clipPath><clipPath id="ca47f5919d"><path d="M 22.773438 0.488281 L 7.761719 0.488281 L 0.253906 13.488281 L 7.761719 26.492188 L 22.773438 26.492188 L 30.28125 13.488281 Z M 22.773438 0.488281 " clip-rule="nonzero"/></clipPath><clipPath id="ef1bb867f4"><rect x="0" width="31" y="0" height="27"/></clipPath><clipPath id="b598b994e6"><path d="M 15.242188 78.503906 L 45.269531 78.503906 L 45.269531 104.539062 L 15.242188 104.539062 Z M 15.242188 78.503906 " clip-rule="nonzero"/></clipPath><clipPath id="886fd1a6da"><path d="M 37.761719 78.503906 L 22.75 78.503906 L 15.242188 91.503906 L 22.75 104.507812 L 37.761719 104.507812 L 45.269531 91.503906 Z M 37.761719 78.503906 " clip-rule="nonzero"/></clipPath><clipPath id="e2deac0532"><path d="M 0.242188 0.503906 L 30.269531 0.503906 L 30.269531 26.539062 L 0.242188 26.539062 Z M 0.242188 0.503906 " clip-rule="nonzero"/></clipPath><clipPath id="ffe685f132"><path d="M 22.761719 0.503906 L 7.75 0.503906 L 0.242188 13.503906 L 7.75 26.507812 L 22.761719 26.507812 L 30.269531 13.503906 Z M 22.761719 0.503906 " clip-rule="nonzero"/></clipPath><clipPath id="cea17201e3"><rect x="0" width="31" y="0" height="27"/></clipPath><clipPath id="87cdd514bc"><path d="M 30.253906 104.507812 L 60.28125 104.507812 L 60.28125 130.542969 L 30.253906 130.542969 Z M 30.253906 104.507812 " clip-rule="nonzero"/></clipPath><clipPath id="797da57b8c"><path d="M 52.773438 104.507812 L 37.761719 104.507812 L 30.253906 117.511719 L 37.761719 130.511719 L 52.773438 130.511719 L 60.28125 117.511719 Z M 52.773438 104.507812 " clip-rule="nonzero"/></clipPath><clipPath id="309038217f"><path d="M 0.253906 0.507812 L 30.28125 0.507812 L 30.28125 26.542969 L 0.253906 26.542969 Z M 0.253906 0.507812 " clip-rule="nonzero"/></clipPath><clipPath id="ab2d2fc4de"><path d="M 22.773438 0.507812 L 7.761719 0.507812 L 0.253906 13.511719 L 7.761719 26.511719 L 22.773438 26.511719 L 30.28125 13.511719 Z M 22.773438 0.507812 " clip-rule="nonzero"/></clipPath><clipPath id="cf87289bc3"><rect x="0" width="31" y="0" height="27"/></clipPath><clipPath id="c45c22dfd3"><path d="M 45.269531 78.503906 L 75.292969 78.503906 L 75.292969 104.539062 L 45.269531 104.539062 Z M 45.269531 78.503906 " clip-rule="nonzero"/></clipPath><clipPath id="6da9bbc6c0"><path d="M 67.789062 78.503906 L 52.773438 78.503906 L 45.269531 91.503906 L 52.773438 104.507812 L 67.789062 104.507812 L 75.292969 91.503906 Z M 67.789062 78.503906 " clip-rule="nonzero"/></clipPath><clipPath id="87dddde9c2"><path d="M 0.269531 0.503906 L 30.292969 0.503906 L 30.292969 26.539062 L 0.269531 26.539062 Z M 0.269531 0.503906 " clip-rule="nonzero"/></clipPath><clipPath id="d5b8073d06"><path d="M 22.789062 0.503906 L 7.773438 0.503906 L 0.269531 13.503906 L 7.773438 26.507812 L 22.789062 26.507812 L 30.292969 13.503906 Z M 22.789062 0.503906 " clip-rule="nonzero"/></clipPath><clipPath id="2c1caa3f98"><rect x="0" width="31" y="0" height="27"/></clipPath><clipPath id="632a81bb16"><path d="M 60.28125 104.507812 L 90.308594 104.507812 L 90.308594 130.542969 L 60.28125 130.542969 Z M 60.28125 104.507812 " clip-rule="nonzero"/></clipPath><clipPath id="46b8ea6cc8"><path d="M 82.800781 104.507812 L 67.789062 104.507812 L 60.28125 117.511719 L 67.789062 130.511719 L 82.800781 130.511719 L 90.308594 117.511719 Z M 82.800781 104.507812 " clip-rule="nonzero"/></clipPath><clipPath id="65b3a2fd17"><path d="M 0.28125 0.507812 L 30.308594 0.507812 L 30.308594 26.542969 L 0.28125 26.542969 Z M 0.28125 0.507812 " clip-rule="nonzero"/></clipPath><clipPath id="8e681a4e40"><path d="M 22.800781 0.507812 L 7.789062 0.507812 L 0.28125 13.511719 L 7.789062 26.511719 L 22.800781 26.511719 L 30.308594 13.511719 Z M 22.800781 0.507812 " clip-rule="nonzero"/></clipPath><clipPath id="02678d8dbd"><rect x="0" width="31" y="0" height="27"/></clipPath><clipPath id="7d51763bfc"><path d="M 75.292969 78.503906 L 105.320312 78.503906 L 105.320312 104.539062 L 75.292969 104.539062 Z M 75.292969 78.503906 " clip-rule="nonzero"/></clipPath><clipPath id="a0e9ac0ad6"><path d="M 97.8125 78.503906 L 82.800781 78.503906 L 75.292969 91.503906 L 82.800781 104.507812 L 97.8125 104.507812 L 105.320312 91.503906 Z M 97.8125 78.503906 " clip-rule="nonzero"/></clipPath><clipPath id="1835436c89"><path d="M 0.292969 0.503906 L 30.320312 0.503906 L 30.320312 26.539062 L 0.292969 26.539062 Z M 0.292969 0.503906 " clip-rule="nonzero"/></clipPath><clipPath id="6a9d19ce56"><path d="M 22.8125 0.503906 L 7.800781 0.503906 L 0.292969 13.503906 L 7.800781 26.507812 L 22.8125 26.507812 L 30.320312 13.503906 Z M 22.8125 0.503906 " clip-rule="nonzero"/></clipPath><clipPath id="9e1766867f"><rect x="0" width="31" y="0" height="27"/></clipPath><clipPath id="fe08eaafa8"><path d="M 30.253906 52.496094 L 60.28125 52.496094 L 60.28125 78.53125 L 30.253906 78.53125 Z M 30.253906 52.496094 " clip-rule="nonzero"/></clipPath><clipPath id="10b2958232"><path d="M 52.773438 52.496094 L 37.761719 52.496094 L 30.253906 65.5 L 37.761719 78.503906 L 52.773438 78.503906 L 60.28125 65.5 Z M 52.773438 52.496094 " clip-rule="nonzero"/></clipPath><clipPath id="360ad40f9c"><path d="M 0.253906 0.496094 L 30.28125 0.496094 L 30.28125 26.519531 L 0.253906 26.519531 Z M 0.253906 0.496094 " clip-rule="nonzero"/></clipPath><clipPath id="c508d43834"><path d="M 22.773438 0.496094 L 7.761719 0.496094 L 0.253906 13.5 L 7.761719 26.503906 L 22.773438 26.503906 L 30.28125 13.5 Z M 22.773438 0.496094 " clip-rule="nonzero"/></clipPath><clipPath id="bc676c2307"><rect x="0" width="31" y="0" height="27"/></clipPath><clipPath id="1ef05dd031"><path d="M 60.28125 52.496094 L 90.308594 52.496094 L 90.308594 78.53125 L 60.28125 78.53125 Z M 60.28125 52.496094 " clip-rule="nonzero"/></clipPath><clipPath id="ecae2f920b"><path d="M 82.800781 52.496094 L 67.789062 52.496094 L 60.28125 65.5 L 67.789062 78.503906 L 82.800781 78.503906 L 90.308594 65.5 Z M 82.800781 52.496094 " clip-rule="nonzero"/></clipPath><clipPath id="d0cbc55879"><path d="M 0.28125 0.496094 L 30.308594 0.496094 L 30.308594 26.519531 L 0.28125 26.519531 Z M 0.28125 0.496094 " clip-rule="nonzero"/></clipPath><clipPath id="6e861e1133"><path d="M 22.800781 0.496094 L 7.789062 0.496094 L 0.28125 13.5 L 7.789062 26.503906 L 22.800781 26.503906 L 30.308594 13.5 Z M 22.800781 0.496094 " clip-rule="nonzero"/></clipPath><clipPath id="5905a06f3e"><rect x="0" width="31" y="0" height="27"/></clipPath><clipPath id="bd412a3d90"><path d="M 90.308594 52.496094 L 120.332031 52.496094 L 120.332031 78.53125 L 90.308594 78.53125 Z M 90.308594 52.496094 " clip-rule="nonzero"/></clipPath><clipPath id="c89152eb22"><path d="M 112.828125 52.496094 L 97.8125 52.496094 L 90.308594 65.5 L 97.8125 78.503906 L 112.828125 78.503906 L 120.332031 65.5 Z M 112.828125 52.496094 " clip-rule="nonzero"/></clipPath><clipPath id="ef081e7382"><path d="M 0.308594 0.496094 L 30.332031 0.496094 L 30.332031 26.519531 L 0.308594 26.519531 Z M 0.308594 0.496094 " clip-rule="nonzero"/></clipPath><clipPath id="ead3289ed5"><path d="M 22.828125 0.496094 L 7.8125 0.496094 L 0.308594 13.5 L 7.8125 26.503906 L 22.828125 26.503906 L 30.332031 13.5 Z M 22.828125 0.496094 " clip-rule="nonzero"/></clipPath><clipPath id="43fde18b4c"><rect x="0" width="31" y="0" height="27"/></clipPath><clipPath id="d02e402cc7"><path d="M 45.269531 26.492188 L 75.292969 26.492188 L 75.292969 52.527344 L 45.269531 52.527344 Z M 45.269531 26.492188 " clip-rule="nonzero"/></clipPath><clipPath id="fdc6adb216"><path d="M 67.789062 26.492188 L 52.773438 26.492188 L 45.269531 39.496094 L 52.773438 52.496094 L 67.789062 52.496094 L 75.292969 39.496094 Z M 67.789062 26.492188 " clip-rule="nonzero"/></clipPath><clipPath id="1f7a31bcce"><path d="M 0.269531 0.492188 L 30.292969 0.492188 L 30.292969 26.527344 L 0.269531 26.527344 Z M 0.269531 0.492188 " clip-rule="nonzero"/></clipPath><clipPath id="771250199d"><path d="M 22.789062 0.492188 L 7.773438 0.492188 L 0.269531 13.496094 L 7.773438 26.496094 L 22.789062 26.496094 L 30.292969 13.496094 Z M 22.789062 0.492188 " clip-rule="nonzero"/></clipPath><clipPath id="ec3ede7bfc"><rect x="0" width="31" y="0" height="27"/></clipPath><clipPath id="7eb0ef6ae1"><path d="M 75.292969 26.492188 L 105.320312 26.492188 L 105.320312 52.527344 L 75.292969 52.527344 Z M 75.292969 26.492188 " clip-rule="nonzero"/></clipPath><clipPath id="789c15c723"><path d="M 97.8125 26.492188 L 82.800781 26.492188 L 75.292969 39.496094 L 82.800781 52.496094 L 97.8125 52.496094 L 105.320312 39.496094 Z M 97.8125 26.492188 " clip-rule="nonzero"/></clipPath><clipPath id="aa32b0f16f"><path d="M 0.292969 0.492188 L 30.320312 0.492188 L 30.320312 26.527344 L 0.292969 26.527344 Z M 0.292969 0.492188 " clip-rule="nonzero"/></clipPath><clipPath id="b7c1f00e59"><path d="M 22.8125 0.492188 L 7.800781 0.492188 L 0.292969 13.496094 L 7.800781 26.496094 L 22.8125 26.496094 L 30.320312 13.496094 Z M 22.8125 0.492188 " clip-rule="nonzero"/></clipPath><clipPath id="6542cfd5cd"><rect x="0" width="31" y="0" height="27"/></clipPath><clipPath id="781305c4e9"><path d="M 60.28125 0.488281 L 90.308594 0.488281 L 90.308594 26.519531 L 60.28125 26.519531 Z M 60.28125 0.488281 " clip-rule="nonzero"/></clipPath><clipPath id="917c4e39b7"><path d="M 82.800781 0.488281 L 67.789062 0.488281 L 60.28125 13.488281 L 67.789062 26.492188 L 82.800781 26.492188 L 90.308594 13.488281 Z M 82.800781 0.488281 " clip-rule="nonzero"/></clipPath><clipPath id="33491bb1bf"><path d="M 0.28125 0.488281 L 30.308594 0.488281 L 30.308594 26.519531 L 0.28125 26.519531 Z M 0.28125 0.488281 " clip-rule="nonzero"/></clipPath><clipPath id="d2eebf5dc8"><path d="M 22.800781 0.488281 L 7.789062 0.488281 L 0.28125 13.488281 L 7.789062 26.492188 L 22.800781 26.492188 L 30.308594 13.488281 Z M 22.800781 0.488281 " clip-rule="nonzero"/></clipPath><clipPath id="c29625569b"><rect x="0" width="31" y="0" height="27"/></clipPath><clipPath id="a295a80e3e"><path d="M 90.308594 0.488281 L 120.332031 0.488281 L 120.332031 26.519531 L 90.308594 26.519531 Z M 90.308594 0.488281 " clip-rule="nonzero"/></clipPath><clipPath id="7587e4ad7b"><path d="M 112.828125 0.488281 L 97.8125 0.488281 L 90.308594 13.488281 L 97.8125 26.492188 L 112.828125 26.492188 L 120.332031 13.488281 Z M 112.828125 0.488281 " clip-rule="nonzero"/></clipPath><clipPath id="10b15209c6"><path d="M 0.308594 0.488281 L 30.332031 0.488281 L 30.332031 26.519531 L 0.308594 26.519531 Z M 0.308594 0.488281 " clip-rule="nonzero"/></clipPath><clipPath id="cdfe7e3836"><path d="M 22.828125 0.488281 L 7.8125 0.488281 L 0.308594 13.488281 L 7.8125 26.492188 L 22.828125 26.492188 L 30.332031 13.488281 Z M 22.828125 0.488281 " clip-rule="nonzero"/></clipPath><clipPath id="c7ad776b12"><rect x="0" width="31" y="0" height="27"/></clipPath><clipPath id="b1a7b6b852"><path d="M 105.320312 26.492188 L 135.347656 26.492188 L 135.347656 52.527344 L 105.320312 52.527344 Z M 105.320312 26.492188 " clip-rule="nonzero"/></clipPath><clipPath id="b201b4709b"><path d="M 127.839844 26.492188 L 112.828125 26.492188 L 105.320312 39.496094 L 112.828125 52.496094 L 127.839844 52.496094 L 135.347656 39.496094 Z M 127.839844 26.492188 " clip-rule="nonzero"/></clipPath><clipPath id="ac2512b23b"><path d="M 0.320312 0.492188 L 30.347656 0.492188 L 30.347656 26.527344 L 0.320312 26.527344 Z M 0.320312 0.492188 " clip-rule="nonzero"/></clipPath><clipPath id="d3d86b3c8c"><path d="M 22.839844 0.492188 L 7.828125 0.492188 L 0.320312 13.496094 L 7.828125 26.496094 L 22.839844 26.496094 L 30.347656 13.496094 Z M 22.839844 0.492188 " clip-rule="nonzero"/></clipPath><clipPath id="c711637f8e"><rect x="0" width="31" y="0" height="27"/></clipPath><clipPath id="e56f941382"><path d="M 90.308594 104.507812 L 120.332031 104.507812 L 120.332031 130.542969 L 90.308594 130.542969 Z M 90.308594 104.507812 " clip-rule="nonzero"/></clipPath><clipPath id="08fb66ccd1"><path d="M 112.828125 104.507812 L 97.8125 104.507812 L 90.308594 117.511719 L 97.8125 130.511719 L 112.828125 130.511719 L 120.332031 117.511719 Z M 112.828125 104.507812 " clip-rule="nonzero"/></clipPath><clipPath id="0585967adb"><path d="M 0.308594 0.507812 L 30.332031 0.507812 L 30.332031 26.542969 L 0.308594 26.542969 Z M 0.308594 0.507812 " clip-rule="nonzero"/></clipPath><clipPath id="0ff2a7e7cc"><path d="M 22.828125 0.507812 L 7.8125 0.507812 L 0.308594 13.511719 L 7.8125 26.511719 L 22.828125 26.511719 L 30.332031 13.511719 Z M 22.828125 0.507812 " clip-rule="nonzero"/></clipPath><clipPath id="837596a242"><rect x="0" width="31" y="0" height="27"/></clipPath><clipPath id="f6a4abacf9"><path d="M 105.320312 78.503906 L 135.347656 78.503906 L 135.347656 104.539062 L 105.320312 104.539062 Z M 105.320312 78.503906 " clip-rule="nonzero"/></clipPath><clipPath id="31f6a8c152"><path d="M 127.839844 78.503906 L 112.828125 78.503906 L 105.320312 91.503906 L 112.828125 104.507812 L 127.839844 104.507812 L 135.347656 91.503906 Z M 127.839844 78.503906 " clip-rule="nonzero"/></clipPath><clipPath id="15fc905ea2"><path d="M 0.320312 0.503906 L 30.347656 0.503906 L 30.347656 26.539062 L 0.320312 26.539062 Z M 0.320312 0.503906 " clip-rule="nonzero"/></clipPath><clipPath id="b3671698fc"><path d="M 22.839844 0.503906 L 7.828125 0.503906 L 0.320312 13.503906 L 7.828125 26.507812 L 22.839844 26.507812 L 30.347656 13.503906 Z M 22.839844 0.503906 " clip-rule="nonzero"/></clipPath><clipPath id="6932e96dc7"><rect x="0" width="31" y="0" height="27"/></clipPath><clipPath id="e21a68a66a"><path d="M 120.332031 52.496094 L 150.359375 52.496094 L 150.359375 78.53125 L 120.332031 78.53125 Z M 120.332031 52.496094 " clip-rule="nonzero"/></clipPath><clipPath id="015d24ecd9"><path d="M 142.851562 52.496094 L 127.839844 52.496094 L 120.332031 65.5 L 127.839844 78.503906 L 142.851562 78.503906 L 150.359375 65.5 Z M 142.851562 52.496094 " clip-rule="nonzero"/></clipPath><clipPath id="a35ad903eb"><path d="M 0.332031 0.496094 L 30.359375 0.496094 L 30.359375 26.519531 L 0.332031 26.519531 Z M 0.332031 0.496094 " clip-rule="nonzero"/></clipPath><clipPath id="26ee047ddb"><path d="M 22.851562 0.496094 L 7.839844 0.496094 L 0.332031 13.5 L 7.839844 26.503906 L 22.851562 26.503906 L 30.359375 13.5 Z M 22.851562 0.496094 " clip-rule="nonzero"/></clipPath><clipPath id="da93b3ebe5"><rect x="0" width="31" y="0" height="27"/></clipPath><clipPath id="73271ef4ae"><rect x="0" width="151" y="0" height="131"/></clipPath><clipPath id="fe8fd637b4"><rect x="0" width="542" y="0" height="104"/></clipPath></defs><g clip-path="url(#8402412c30)"><g clip-path="url(#09d97b81b4)"><g transform="matrix(1, 0, 0, 1, 0, 34)"><g clip-path="url(#edcac88c99)"><g clip-path="url(#b038d3b8d1)"><g clip-path="url(#baee618d9b)"><path fill="#ffffff" d="M 0 0.296875 L 180.589844 0.296875 L 180.589844 156.878906 L 0 156.878906 Z M 0 0.296875 " fill-opacity="1" fill-rule="nonzero"/></g></g></g></g></g></g><g clip-path="url(#54e3b0b946)"><g clip-path="url(#1c3953e1c9)"><g transform="matrix(1, 0, 0, 1, 6, 40)"><g clip-path="url(#053836a9ff)"><g clip-path="url(#5337671137)"><g clip-path="url(#21c2a65072)"><path fill="#000000" d="M 0.996094 0.355469 L 167.59375 0.355469 L 167.59375 144.808594 L 0.996094 144.808594 Z M 0.996094 0.355469 " fill-opacity="1" fill-rule="nonzero"/></g></g></g></g></g></g><g transform="matrix(1, 0, 0, 1, 15, 47)"><g clip-path="url(#73271ef4ae)"><g clip-path="url(#978b1d0c55)"><g clip-path="url(#cb77e82336)"><g transform="matrix(1, 0, 0, 1, 15, 26)"><g clip-path="url(#40295ee774)"><g clip-path="url(#adcfdca133)"><g clip-path="url(#bb4b61b890)"><path fill="#ffffff" d="M 0.242188 0.492188 L 30.269531 0.492188 L 30.269531 26.527344 L 0.242188 26.527344 Z M 0.242188 0.492188 " fill-opacity="1" fill-rule="nonzero"/></g></g></g></g></g></g><g clip-path="url(#4f50649141)"><g clip-path="url(#8532b5d9c0)"><g transform="matrix(1, 0, 0, 1, 0, 52)"><g clip-path="url(#e0c9f137bd)"><g clip-path="url(#68af5f1467)"><g clip-path="url(#162eab5883)"><path fill="#ffffff" d="M 0.230469 0.496094 L 30.253906 0.496094 L 30.253906 26.53125 L 0.230469 26.53125 Z M 0.230469 0.496094 " fill-opacity="1" fill-rule="nonzero"/></g></g></g></g></g></g><g clip-path="url(#b709bdef63)"><g clip-path="url(#c9d258dff1)"><g transform="matrix(1, 0, 0, 1, 30, -0.000000000000007105)"><g clip-path="url(#ef1bb867f4)"><g clip-path="url(#5aaf1861c0)"><g clip-path="url(#ca47f5919d)"><path fill="#ffffff" d="M 0.253906 0.488281 L 30.28125 0.488281 L 30.28125 26.519531 L 0.253906 26.519531 Z M 0.253906 0.488281 " fill-opacity="1" fill-rule="nonzero"/></g></g></g></g></g></g><g clip-path="url(#b598b994e6)"><g clip-path="url(#886fd1a6da)"><g transform="matrix(1, 0, 0, 1, 15, 78)"><g clip-path="url(#cea17201e3)"><g clip-path="url(#e2deac0532)"><g clip-path="url(#ffe685f132)"><path fill="#ffffff" d="M 0.242188 0.503906 L 30.269531 0.503906 L 30.269531 26.539062 L 0.242188 26.539062 Z M 0.242188 0.503906 " fill-opacity="1" fill-rule="nonzero"/></g></g></g></g></g></g><g clip-path="url(#87cdd514bc)"><g clip-path="url(#797da57b8c)"><g transform="matrix(1, 0, 0, 1, 30, 104)"><g clip-path="url(#cf87289bc3)"><g clip-path="url(#309038217f)"><g clip-path="url(#ab2d2fc4de)"><path fill="#ffffff" d="M 0.253906 0.507812 L 30.28125 0.507812 L 30.28125 26.542969 L 0.253906 26.542969 Z M 0.253906 0.507812 " fill-opacity="1" fill-rule="nonzero"/></g></g></g></g></g></g><g clip-path="url(#c45c22dfd3)"><g clip-path="url(#6da9bbc6c0)"><g transform="matrix(1, 0, 0, 1, 45, 78)"><g clip-path="url(#2c1caa3f98)"><g clip-path="url(#87dddde9c2)"><g clip-path="url(#d5b8073d06)"><path fill="#ffffff" d="M 0.269531 0.503906 L 30.292969 0.503906 L 30.292969 26.539062 L 0.269531 26.539062 Z M 0.269531 0.503906 " fill-opacity="1" fill-rule="nonzero"/></g></g></g></g></g></g><g clip-path="url(#632a81bb16)"><g clip-path="url(#46b8ea6cc8)"><g transform="matrix(1, 0, 0, 1, 60, 104)"><g clip-path="url(#02678d8dbd)"><g clip-path="url(#65b3a2fd17)"><g clip-path="url(#8e681a4e40)"><path fill="#ffffff" d="M 0.28125 0.507812 L 30.308594 0.507812 L 30.308594 26.542969 L 0.28125 26.542969 Z M 0.28125 0.507812 " fill-opacity="1" fill-rule="nonzero"/></g></g></g></g></g></g><g clip-path="url(#7d51763bfc)"><g clip-path="url(#a0e9ac0ad6)"><g transform="matrix(1, 0, 0, 1, 75, 78)"><g clip-path="url(#9e1766867f)"><g clip-path="url(#1835436c89)"><g clip-path="url(#6a9d19ce56)"><path fill="#ffffff" d="M 0.292969 0.503906 L 30.320312 0.503906 L 30.320312 26.539062 L 0.292969 26.539062 Z M 0.292969 0.503906 " fill-opacity="1" fill-rule="nonzero"/></g></g></g></g></g></g><g clip-path="url(#fe08eaafa8)"><g clip-path="url(#10b2958232)"><g transform="matrix(1, 0, 0, 1, 30, 52)"><g clip-path="url(#bc676c2307)"><g clip-path="url(#360ad40f9c)"><g clip-path="url(#c508d43834)"><path fill="#ffffff" d="M 0.253906 0.496094 L 30.28125 0.496094 L 30.28125 26.53125 L 0.253906 26.53125 Z M 0.253906 0.496094 " fill-opacity="1" fill-rule="nonzero"/></g></g></g></g></g></g><g clip-path="url(#1ef05dd031)"><g clip-path="url(#ecae2f920b)"><g transform="matrix(1, 0, 0, 1, 60, 52)"><g clip-path="url(#5905a06f3e)"><g clip-path="url(#d0cbc55879)"><g clip-path="url(#6e861e1133)"><path fill="#ffffff" d="M 0.28125 0.496094 L 30.308594 0.496094 L 30.308594 26.53125 L 0.28125 26.53125 Z M 0.28125 0.496094 " fill-opacity="1" fill-rule="nonzero"/></g></g></g></g></g></g><g clip-path="url(#bd412a3d90)"><g clip-path="url(#c89152eb22)"><g transform="matrix(1, 0, 0, 1, 90, 52)"><g clip-path="url(#43fde18b4c)"><g clip-path="url(#ef081e7382)"><g clip-path="url(#ead3289ed5)"><path fill="#ffffff" d="M 0.308594 0.496094 L 30.332031 0.496094 L 30.332031 26.53125 L 0.308594 26.53125 Z M 0.308594 0.496094 " fill-opacity="1" fill-rule="nonzero"/></g></g></g></g></g></g><g clip-path="url(#d02e402cc7)"><g clip-path="url(#fdc6adb216)"><g transform="matrix(1, 0, 0, 1, 45, 26)"><g clip-path="url(#ec3ede7bfc)"><g clip-path="url(#1f7a31bcce)"><g clip-path="url(#771250199d)"><path fill="#ffffff" d="M 0.269531 0.492188 L 30.292969 0.492188 L 30.292969 26.527344 L 0.269531 26.527344 Z M 0.269531 0.492188 " fill-opacity="1" fill-rule="nonzero"/></g></g></g></g></g></g><g clip-path="url(#7eb0ef6ae1)"><g clip-path="url(#789c15c723)"><g transform="matrix(1, 0, 0, 1, 75, 26)"><g clip-path="url(#6542cfd5cd)"><g clip-path="url(#aa32b0f16f)"><g clip-path="url(#b7c1f00e59)"><path fill="#ffffff" d="M 0.292969 0.492188 L 30.320312 0.492188 L 30.320312 26.527344 L 0.292969 26.527344 Z M 0.292969 0.492188 " fill-opacity="1" fill-rule="nonzero"/></g></g></g></g></g></g><g clip-path="url(#781305c4e9)"><g clip-path="url(#917c4e39b7)"><g transform="matrix(1, 0, 0, 1, 60, -0.000000000000007105)"><g clip-path="url(#c29625569b)"><g clip-path="url(#33491bb1bf)"><g clip-path="url(#d2eebf5dc8)"><path fill="#ffffff" d="M 0.28125 0.488281 L 30.308594 0.488281 L 30.308594 26.519531 L 0.28125 26.519531 Z M 0.28125 0.488281 " fill-opacity="1" fill-rule="nonzero"/></g></g></g></g></g></g><g clip-path="url(#a295a80e3e)"><g clip-path="url(#7587e4ad7b)"><g transform="matrix(1, 0, 0, 1, 90, -0.000000000000007105)"><g clip-path="url(#c7ad776b12)"><g clip-path="url(#10b15209c6)"><g clip-path="url(#cdfe7e3836)"><path fill="#ffffff" d="M 0.308594 0.488281 L 30.332031 0.488281 L 30.332031 26.519531 L 0.308594 26.519531 Z M 0.308594 0.488281 " fill-opacity="1" fill-rule="nonzero"/></g></g></g></g></g></g><g clip-path="url(#b1a7b6b852)"><g clip-path="url(#b201b4709b)"><g transform="matrix(1, 0, 0, 1, 105, 26)"><g clip-path="url(#c711637f8e)"><g clip-path="url(#ac2512b23b)"><g clip-path="url(#d3d86b3c8c)"><path fill="#ffffff" d="M 0.320312 0.492188 L 30.347656 0.492188 L 30.347656 26.527344 L 0.320312 26.527344 Z M 0.320312 0.492188 " fill-opacity="1" fill-rule="nonzero"/></g></g></g></g></g></g><g clip-path="url(#e56f941382)"><g clip-path="url(#08fb66ccd1)"><g transform="matrix(1, 0, 0, 1, 90, 104)"><g clip-path="url(#837596a242)"><g clip-path="url(#0585967adb)"><g clip-path="url(#0ff2a7e7cc)"><path fill="#ffffff" d="M 0.308594 0.507812 L 30.332031 0.507812 L 30.332031 26.542969 L 0.308594 26.542969 Z M 0.308594 0.507812 " fill-opacity="1" fill-rule="nonzero"/></g></g></g></g></g></g><g clip-path="url(#f6a4abacf9)"><g clip-path="url(#31f6a8c152)"><g transform="matrix(1, 0, 0, 1, 105, 78)"><g clip-path="url(#6932e96dc7)"><g clip-path="url(#15fc905ea2)"><g clip-path="url(#b3671698fc)"><path fill="#ffffff" d="M 0.320312 0.503906 L 30.347656 0.503906 L 30.347656 26.539062 L 0.320312 26.539062 Z M 0.320312 0.503906 " fill-opacity="1" fill-rule="nonzero"/></g></g></g></g></g></g><g clip-path="url(#e21a68a66a)"><g clip-path="url(#015d24ecd9)"><g transform="matrix(1, 0, 0, 1, 120, 52)"><g clip-path="url(#da93b3ebe5)"><g clip-path="url(#a35ad903eb)"><g clip-path="url(#26ee047ddb)"><path fill="#ffffff" d="M 0.332031 0.496094 L 30.359375 0.496094 L 30.359375 26.53125 L 0.332031 26.53125 Z M 0.332031 0.496094 " fill-opacity="1" fill-rule="nonzero"/></g></g></g></g></g></g></g></g><g transform="matrix(1, 0, 0, 1, 208, 60)"><g clip-path="url(#fe8fd637b4)"><g fill="#ffffff" fill-opacity="1"><g transform="translate(2.1648, 80.795475)"><g><path d="M 46.0625 -13.625 L 16.640625 -13.625 L 10.84375 0 L -0.421875 0 L 26.0625 -58.84375 L 36.8125 -58.84375 L 63.390625 0 L 51.953125 0 Z M 42.453125 -22.1875 L 31.359375 -47.921875 L 20.34375 -22.1875 Z M 42.453125 -22.1875 "/></g></g></g><g fill="#ffffff" fill-opacity="1"><g transform="translate(81.926394, 80.795475)"><g><path d="M 49.59375 -30.59375 C 52.84375 -29.53125 55.421875 -27.75 57.328125 -25.25 C 59.234375 -22.757812 60.1875 -19.664062 60.1875 -15.96875 C 60.1875 -10.875 58.222656 -6.9375 54.296875 -4.15625 C 50.378906 -1.382812 44.664062 0 37.15625 0 L 7.90625 0 L 7.90625 -58.84375 L 35.46875 -58.84375 C 42.414062 -58.84375 47.765625 -57.484375 51.515625 -54.765625 C 55.273438 -52.046875 57.15625 -48.304688 57.15625 -43.546875 C 57.15625 -40.628906 56.484375 -38.050781 55.140625 -35.8125 C 53.796875 -33.570312 51.945312 -31.832031 49.59375 -30.59375 Z M 18.828125 -50.265625 L 18.828125 -34.046875 L 34.296875 -34.046875 C 38.109375 -34.046875 41.035156 -34.734375 43.078125 -36.109375 C 45.128906 -37.484375 46.15625 -39.484375 46.15625 -42.109375 C 46.15625 -44.804688 45.128906 -46.835938 43.078125 -48.203125 C 41.035156 -49.578125 38.109375 -50.265625 34.296875 -50.265625 Z M 36.484375 -8.578125 C 44.941406 -8.578125 49.171875 -11.40625 49.171875 -17.0625 C 49.171875 -22.726562 44.941406 -25.5625 36.484375 -25.5625 L 18.828125 -25.5625 L 18.828125 -8.578125 Z M 36.484375 -8.578125 "/></g></g></g><g fill="#ffffff" fill-opacity="1"><g transform="translate(162.696506, 80.795475)"><g><path d="M 46.0625 -13.625 L 16.640625 -13.625 L 10.84375 0 L -0.421875 0 L 26.0625 -58.84375 L 36.8125 -58.84375 L 63.390625 0 L 51.953125 0 Z M 42.453125 -22.1875 L 31.359375 -47.921875 L 20.34375 -22.1875 Z M 42.453125 -22.1875 "/></g></g></g><g fill="#ffffff" fill-opacity="1"><g transform="translate(242.4581, 80.795475)"><g><path d="M 46.40625 0 L 34.375 -17.234375 C 33.875 -17.179688 33.117188 -17.15625 32.109375 -17.15625 L 18.828125 -17.15625 L 18.828125 0 L 7.90625 0 L 7.90625 -58.84375 L 32.109375 -58.84375 C 37.210938 -58.84375 41.65625 -58 45.4375 -56.3125 C 49.21875 -54.632812 52.113281 -52.226562 54.125 -49.09375 C 56.144531 -45.957031 57.15625 -42.226562 57.15625 -37.90625 C 57.15625 -33.476562 56.078125 -29.664062 53.921875 -26.46875 C 51.765625 -23.28125 48.671875 -20.898438 44.640625 -19.328125 L 58.171875 0 Z M 46.15625 -37.90625 C 46.15625 -41.664062 44.921875 -44.550781 42.453125 -46.5625 C 39.984375 -48.582031 36.367188 -49.59375 31.609375 -49.59375 L 18.828125 -49.59375 L 18.828125 -26.140625 L 31.609375 -26.140625 C 36.367188 -26.140625 39.984375 -27.160156 42.453125 -29.203125 C 44.921875 -31.253906 46.15625 -34.15625 46.15625 -37.90625 Z M 46.15625 -37.90625 "/></g></g></g><g fill="#ffffff" fill-opacity="1"><g transform="translate(320.706926, 80.795475)"><g><path d="M 35.140625 0.84375 C 29.203125 0.84375 23.835938 -0.457031 19.046875 -3.0625 C 14.253906 -5.675781 10.5 -9.28125 7.78125 -13.875 C 5.0625 -18.46875 3.703125 -23.648438 3.703125 -29.421875 C 3.703125 -35.191406 5.070312 -40.375 7.8125 -44.96875 C 10.5625 -49.5625 14.332031 -53.160156 19.125 -55.765625 C 23.914062 -58.378906 29.28125 -59.6875 35.21875 -59.6875 C 40.039062 -59.6875 44.441406 -58.84375 48.421875 -57.15625 C 52.398438 -55.476562 55.757812 -53.039062 58.5 -49.84375 L 51.453125 -43.203125 C 47.191406 -47.796875 41.953125 -50.09375 35.734375 -50.09375 C 31.691406 -50.09375 28.070312 -49.210938 24.875 -47.453125 C 21.6875 -45.691406 19.195312 -43.238281 17.40625 -40.09375 C 15.613281 -36.957031 14.71875 -33.398438 14.71875 -29.421875 C 14.71875 -25.441406 15.613281 -21.878906 17.40625 -18.734375 C 19.195312 -15.597656 21.6875 -13.148438 24.875 -11.390625 C 28.070312 -9.628906 31.691406 -8.75 35.734375 -8.75 C 41.953125 -8.75 47.191406 -11.070312 51.453125 -15.71875 L 58.5 -9 C 55.757812 -5.800781 52.382812 -3.359375 48.375 -1.671875 C 44.375 0.00390625 39.960938 0.84375 35.140625 0.84375 Z M 35.140625 0.84375 "/></g></g></g><g fill="#ffffff" fill-opacity="1"><g transform="translate(398.619585, 80.795475)"><g><path d="M 46.0625 -13.625 L 16.640625 -13.625 L 10.84375 0 L -0.421875 0 L 26.0625 -58.84375 L 36.8125 -58.84375 L 63.390625 0 L 51.953125 0 Z M 42.453125 -22.1875 L 31.359375 -47.921875 L 20.34375 -22.1875 Z M 42.453125 -22.1875 "/></g></g></g><g fill="#ffffff" fill-opacity="1"><g transform="translate(478.381159, 80.795475)"><g><path d="M 19.84375 -49.59375 L 0.34375 -49.59375 L 0.34375 -58.84375 L 50.265625 -58.84375 L 50.265625 -49.59375 L 30.765625 -49.59375 L 30.765625 0 L 19.84375 0 Z M 19.84375 -49.59375 "/></g></g></g></g></g></svg>